<?xml version="1.0" encoding="utf-8"?>
<!-- Generator: Adobe Illustrator 19.2.0, SVG Export Plug-In . SVG Version: 6.00 Build 0)  -->
<svg version="1.1" id="Layer_1" xmlns="http://www.w3.org/2000/svg" xmlns:xlink="http://www.w3.org/1999/xlink" x="0px" y="0px"
	 width="140px" height="50px" viewBox="0 0 140 50" style="enable-background:new 0 0 140 50;" xml:space="preserve">
<style type="text/css">
	.st0{fill:#4FC87A;}
	.st1{fill:#7A9399;}
</style>
<path class="st0" d="M11.4,20.6H3.5v3.1h7.2v2.5H3.5v3.5h8v2.6H0.3V18h11V20.6z"/>
<path class="st1" d="M123.7,17.9h4.6l3.5,9.8l3.4-9.8h4.5v14.2h-3.1V22L133,32.1h-2.5l-3.7-10v10h-3.1V17.9z"/>
<rect x="0.3" y="36.6" class="st0" width="92" height="1.9"/>
<rect x="92.5" y="36.6" class="st1" width="47.2" height="1.9"/>
<g>
	<path class="st0" d="M0,43.7h1.1v5.2h2.5v-5.2h1.1v5.2h2.5v-5.2h1.1v6.1H0V43.7z"/>
	<path class="st0" d="M12.6,46.2l2.7,3.7h-1.4l-2.1-2.9l-0.9,0.9v2.1H9.7v-6.1h1.1v2.8l2.9-2.8h1.4L12.6,46.2z"/>
	<path class="st0" d="M21.6,46.8c0,1.9-1.3,3.2-3.1,3.2c-1.8,0-3.1-1.3-3.1-3.2c0-1.8,1.1-3.2,3.1-3.2
		C20.4,43.6,21.6,44.9,21.6,46.8z M16.6,46.8c0,1.4,0.8,2.3,2,2.3c1.2,0,1.9-0.9,1.9-2.3c0-1.4-0.8-2.3-2-2.3
		C17.4,44.5,16.6,45.4,16.6,46.8z"/>
	<path class="st0" d="M26.4,49.9v-5.2h-2l-0.1,2.9c-0.1,1.7-0.8,2.4-1.7,2.4c-0.3,0-0.5-0.1-0.7-0.1V49c0.1,0.1,0.4,0.1,0.4,0.1
		c0.5,0,0.8-0.3,0.9-1.8l0.1-3.6h4.2v6.1H26.4z"/>
	<path class="st0" d="M34.3,49.9h-1.2l-0.6-1.6h-2.6l-0.6,1.6h-1.2l2.5-6.1h1.2L34.3,49.9z M31.2,44.8l-1,2.6h2L31.2,44.8z"/>
	<path class="st0" d="M42.9,49.9h-1.2L41,48.2h-2.6l-0.6,1.6h-1.2l2.5-6.1h1.2L42.9,49.9z M39.8,44.8l-1,2.6h2L39.8,44.8z"/>
	<path class="st0" d="M48.7,49.9h-1.1v-2.8h-3v2.8h-1.1v-6.1h1.1v2.4h3v-2.4h1.1V49.9z"/>
	<path class="st0" d="M50,49.9v-6.1h4.4v0.9h-3.2v5.2H50z"/>
	<path class="st0" d="M58.3,49.9v-5.2h-2l-0.1,2.9c-0.1,1.7-0.8,2.4-1.7,2.4c-0.3,0-0.5-0.1-0.7-0.1V49c0.1,0.1,0.4,0.1,0.4,0.1
		c0.5,0,0.8-0.3,0.9-1.8l0.1-3.6h4.2v6.1H58.3z"/>
	<path class="st0" d="M60.8,43.7h1.1v4.7l2.8-4.7H66v6.1h-1.1v-4.7l-2.8,4.7h-1.3V43.7z"/>
	<path class="st0" d="M67.3,43.7h1.1v4.7l2.8-4.7h1.3v6.1h-1.1v-4.7l-2.8,4.7h-1.3V43.7z M69.9,43.4c-0.9,0-1.4-0.4-1.5-1.2H69
		c0.1,0.4,0.4,0.7,1,0.7c0.5,0,0.8-0.2,1-0.7h0.5C71.3,43,70.9,43.4,69.9,43.4z"/>
	<path class="st0" d="M76.6,50c-1.8,0-3-1.3-3-3.2c0-1.7,1.1-3.2,3.1-3.2c1.3,0,2.5,0.7,2.7,2.1h-1.1c-0.2-0.7-0.8-1.2-1.6-1.2
		c-1.4,0-1.9,1.2-1.9,2.3c0,1.1,0.5,2.3,1.9,2.3c1.1,0,1.5-0.7,1.6-1.6h1.1C79.3,49,78.2,50,76.6,50z"/>
	<path class="st0" d="M83.2,46.2l2.7,3.7h-1.4l-2.1-2.9l-0.9,0.9v2.1h-1.1v-6.1h1.1v2.8l2.9-2.8h1.4L83.2,46.2z"/>
	<path class="st0" d="M92.3,46.8c0,1.9-1.3,3.2-3.1,3.2c-1.8,0-3.1-1.3-3.1-3.2c0-1.8,1.1-3.2,3.1-3.2
		C91.1,43.6,92.3,44.9,92.3,46.8z M87.3,46.8c0,1.4,0.8,2.3,2,2.3c1.2,0,1.9-0.9,1.9-2.3c0-1.4-0.8-2.3-2-2.3
		C88,44.5,87.3,45.4,87.3,46.8z"/>
	<path class="st0" d="M93.4,49.9v-6.1h4.4v0.9h-3.2v5.2H93.4z"/>
	<path class="st0" d="M104.3,46.8c0,1.9-1.3,3.2-3.1,3.2c-1.8,0-3.1-1.3-3.1-3.2c0-1.8,1.1-3.2,3.1-3.2
		C103,43.6,104.3,44.9,104.3,46.8z M99.2,46.8c0,1.4,0.8,2.3,2,2.3c1.2,0,1.9-0.9,1.9-2.3c0-1.4-0.8-2.3-2-2.3
		C100,44.5,99.2,45.4,99.2,46.8z"/>
	<path class="st0" d="M111.6,49.9v-2.5h-1.3l-1.8,2.5H107l2-2.6c-1.1-0.3-1.4-1-1.4-1.8c0-1,0.8-1.7,2.1-1.7h2.9v6.1H111.6z
		 M111.6,44.6h-1.7c-0.8,0-1.1,0.3-1.1,0.9c0,0.6,0.4,1,1.1,1h1.7V44.6z"/>
	<path class="st0" d="M116.4,50c-1.5,0-2.7-0.7-2.7-2.2h1.1c0,0.9,0.8,1.3,1.7,1.3c0.8,0,1.3-0.4,1.3-1.1c0-0.7-0.5-1-1.2-1h-0.8
		v-0.8h0.8c0.6,0,1-0.4,1-1c0-0.5-0.4-0.9-1.1-0.9c-0.8,0-1.3,0.3-1.4,1.1h-1.1c0.1-1.4,1.1-1.9,2.4-1.9c1.3,0,2.3,0.5,2.3,1.7
		c0,0.6-0.5,1.2-1,1.3v0c0.7,0.1,1.2,0.7,1.2,1.5C118.8,48.8,118.2,50,116.4,50z"/>
	<path class="st0" d="M122.6,49.9h-2.7v-6.1h1.1v2.3h1.5c1.4,0,2.2,0.7,2.2,1.9C124.8,49.2,124,49.9,122.6,49.9z M122.5,46.9h-1.5v2
		h1.5c0.7,0,1.1-0.3,1.1-1C123.7,47.3,123.2,46.9,122.5,46.9z M126.7,43.7v6.1h-1.1v-6.1H126.7z"/>
	<path class="st0" d="M130.8,46.2l2.7,3.7h-1.4l-2.1-2.9l-0.9,0.9v2.1H128v-6.1h1.1v2.8l2.9-2.8h1.4L130.8,46.2z"/>
	<path class="st0" d="M139.7,49.9h-1.2l-0.6-1.6h-2.6l-0.6,1.6h-1.2l2.5-6.1h1.2L139.7,49.9z M136.6,44.8l-1,2.6h2L136.6,44.8z"/>
</g>
<path class="st0" d="M14.2,18h3.3l6.1,9.5V18h3.1v14.2h-3.2l-6.1-9.5v9.5h-3.1V18z"/>
<path class="st0" d="M42.6,32.2h-2l-0.3-1.6c-1.1,1.3-2.5,2-4.4,2c-4.1,0-6.9-3-6.9-7.4c0-4.4,3-7.5,7.2-7.5c3.4,0,5.9,2,6.3,5h-3.1
	c-0.3-1.5-1.5-2.4-3.2-2.4c-2.5,0-4,1.8-4,4.9c0,3.1,1.5,4.9,4.1,4.9c2,0,3.4-1.3,3.5-3.2h-3.3v-2.3h6.2V32.2z"/>
<path class="st0" d="M55.7,32.2H45.2V18h3.2v11.5h7.2V32.2z"/>
<path class="st0" d="M60.7,32.2h-3.2V18h3.2V32.2z"/>
<path class="st0" d="M71.4,22.2c-0.1-1.4-1.1-2.1-2.8-2.1c-1.5,0-2.4,0.6-2.4,1.6c0,1.2,1.6,1.3,4.5,2.1c2.6,0.7,4.3,1.7,4.3,4.1
	c0,3.4-3.1,4.6-6.1,4.6c-4,0-6.4-1.9-6.4-5.1h3.2c0.1,1.9,1.4,2.7,3.3,2.7c1.7,0,2.7-0.7,2.7-1.9c0-1.1-1-1.3-4-2.2
	c-2.4-0.7-4.7-1.2-4.7-4.1c0-2.6,2.2-4.3,5.7-4.3c3.1,0,5.6,1.4,5.7,4.5H71.4z"/>
<path class="st0" d="M89.5,32.2h-3.2v-6.1h-6v6.1H77V18h3.2v5.4h6V18h3.2V32.2z"/>
<path class="st1" d="M92.4,18h6c4.6,0,7.1,2.5,7.1,7.1c0,4.6-2.6,7.1-7.1,7.1h-6V18z M97.9,29.6c3,0,4.3-1.7,4.3-4.5
	s-1.4-4.5-4.3-4.5h-2.4v9H97.9z"/>
<path class="st1" d="M121.6,25.1c0,4.4-2.9,7.4-7.2,7.4c-4.4,0-7.3-3-7.3-7.4c0-4.5,2.9-7.5,7.3-7.5
	C118.7,17.7,121.6,20.7,121.6,25.1z M110.3,25.1c0,3.1,1.5,4.9,4,4.9c2.4,0,4-1.9,4-4.9c0-3-1.5-4.9-4-4.9
	C111.9,20.2,110.3,22.1,110.3,25.1z"/>
<path class="st1" d="M139,10.3L115.8,0L92.6,10.3c-0.8,0.4-1.2,1.3-0.8,2.1c0.3,0.6,0.9,0.9,1.5,0.9c0.2,0,0.5,0,0.7-0.1l21.8-9.7
	l21.8,9.7c0.8,0.4,1.8,0,2.2-0.8C140.2,11.6,139.9,10.7,139,10.3z"/>
</svg>
